<?xml version="1.0" encoding="UTF-8" standalone="no"?>
<!DOCTYPE svg PUBLIC "-//W3C//DTD SVG 1.1//EN"
 "http://www.w3.org/Graphics/SVG/1.1/DTD/svg11.dtd">
<!-- Generated by graphviz version 12.2.1 (20241206.2353)
 -->
<!-- Title: G Pages: 1 -->
<svg width="1031pt" height="559pt"
 viewBox="0.00 0.00 1030.84 559.44" xmlns="http://www.w3.org/2000/svg" xmlns:xlink="http://www.w3.org/1999/xlink">
<g id="graph0" class="graph" transform="scale(1 1) rotate(0) translate(4 555.44)">
<title>G</title><style>.edge>path:hover{stroke-width:8}</style>
<polygon fill="white" stroke="none" points="-4,4 -4,-555.44 1026.84,-555.44 1026.84,4 -4,4"/>
<!-- acquisitions -->
<g id="node1" class="node">
<title>acquisitions</title><style>.edge>path:hover{stroke-width:8}</style>
<ellipse fill="#b69553" stroke="black" cx="80.64" cy="-130.57" rx="40.09" ry="18"/>
<text text-anchor="middle" x="80.64" y="-126.69" font-family="Helvetica,sans-Serif" font-size="10.00" fill="#000000">acquisitions</text>
</g>
<!-- app_py -->
<g id="node3" class="node">
<title>app_py</title><style>.edge>path:hover{stroke-width:8}</style>
<ellipse fill="#5a6a39" stroke="black" cx="456.64" cy="-18" rx="27" ry="18"/>
<text text-anchor="middle" x="456.64" y="-14.12" font-family="Helvetica,sans-Serif" font-size="10.00" fill="#ffffff">app.py</text>
</g>
<!-- acquisitions&#45;&gt;app_py -->
<g id="edge1" class="edge">
<title>acquisitions&#45;&gt;app_py</title><style>.edge>path:hover{stroke-width:8}</style>
<path fill="none" stroke="black" d="M456.64,-72C460.19,-64.51 461.24,-55.73 461.11,-47.5"/>
<polygon fill="#b69553" stroke="black" points="464.6,-47.26 460.35,-37.55 457.62,-47.79 464.6,-47.26"/>
<path fill="none" stroke="black" d="M108.8,-117.3C117,-114.16 126.06,-111.08 134.64,-109 169.63,-100.53 441.25,-105.54 456.64,-73"/>
</g>
<!-- acquisitions_stream_camera -->
<g id="node2" class="node">
<title>acquisitions_stream_camera</title><style>.edge>path:hover{stroke-width:8}</style>
<ellipse fill="#ac8b49" stroke="black" cx="235.64" cy="-130.57" rx="59.04" ry="21.57"/>
<text text-anchor="middle" x="235.64" y="-132.32" font-family="Helvetica,sans-Serif" font-size="10.00" fill="#000000">acquisitions.</text>
<text text-anchor="middle" x="235.64" y="-121.07" font-family="Helvetica,sans-Serif" font-size="10.00" fill="#000000">stream_camera</text>
</g>
<!-- acquisitions_stream_camera&#45;&gt;app_py -->
<g id="edge2" class="edge">
<title>acquisitions_stream_camera&#45;&gt;app_py</title><style>.edge>path:hover{stroke-width:8}</style>
<path fill="none" stroke="black" d="M279.79,-115.78C287.71,-113.43 295.9,-111.08 303.64,-109 371.11,-90.88 426.78,-136.15 456.64,-73"/>
</g>
<!-- instruments -->
<g id="node4" class="node">
<title>instruments</title><style>.edge>path:hover{stroke-width:8}</style>
<ellipse fill="#47c247" stroke="black" cx="39.64" cy="-246.7" rx="39.64" ry="18"/>
<text text-anchor="middle" x="39.64" y="-242.83" font-family="Helvetica,sans-Serif" font-size="10.00" fill="#000000">instruments</text>
</g>
<!-- instruments&#45;&gt;app_py -->
<g id="edge3" class="edge">
<title>instruments&#45;&gt;app_py</title><style>.edge>path:hover{stroke-width:8}</style>
<path fill="none" stroke="black" d="M148.64,-129.57C154.98,-118.86 156.57,-114.69 167.64,-109 225.21,-79.43 428.97,-131.51 456.64,-73"/>
<path fill="none" stroke="black" d="M148.64,-188.13C170.75,-176.16 135.85,-153.21 148.64,-131.57"/>
<path fill="none" stroke="black" d="M65.33,-232.69C87.5,-221.39 120.33,-204.46 148.64,-189.13"/>
</g>
<!-- interface_ui_methods -->
<g id="node9" class="node">
<title>interface_ui_methods</title><style>.edge>path:hover{stroke-width:8}</style>
<ellipse fill="#3a886e" stroke="black" cx="359.64" cy="-130.57" rx="46.85" ry="21.57"/>
<text text-anchor="middle" x="359.64" y="-132.32" font-family="Helvetica,sans-Serif" font-size="10.00" fill="#ffffff">interface.</text>
<text text-anchor="middle" x="359.64" y="-121.07" font-family="Helvetica,sans-Serif" font-size="10.00" fill="#ffffff">ui_methods</text>
</g>
<!-- instruments&#45;&gt;interface_ui_methods -->
<g id="edge4" class="edge">
<title>instruments&#45;&gt;interface_ui_methods</title><style>.edge>path:hover{stroke-width:8}</style>
<path fill="none" stroke="black" d="M148.64,-188.13C210.83,-154.46 235.88,-172.36 303.64,-152.13 306.96,-151.14 310.37,-150.06 313.78,-148.93"/>
<polygon fill="#47c247" stroke="black" points="314.88,-152.25 323.19,-145.68 312.59,-145.64 314.88,-152.25"/>
</g>
<!-- instruments_xicam -->
<g id="node5" class="node">
<title>instruments_xicam</title><style>.edge>path:hover{stroke-width:8}</style>
<ellipse fill="#47c247" stroke="black" cx="439.64" cy="-246.7" rx="49.5" ry="21.57"/>
<text text-anchor="middle" x="439.64" y="-248.45" font-family="Helvetica,sans-Serif" font-size="10.00" fill="#000000">instruments.</text>
<text text-anchor="middle" x="439.64" y="-237.2" font-family="Helvetica,sans-Serif" font-size="10.00" fill="#000000">xicam</text>
</g>
<!-- instruments_xicam&#45;&gt;app_py -->
<g id="edge5" class="edge">
<title>instruments_xicam&#45;&gt;app_py</title><style>.edge>path:hover{stroke-width:8}</style>
<path fill="none" stroke="black" d="M516.64,-129.57C507.83,-93.99 440.97,-106.13 456.64,-73"/>
<path fill="none" stroke="black" d="M478.64,-188.13C478.38,-157.85 523.92,-160.97 516.64,-131.57"/>
</g>
<!-- instruments_xicam&#45;&gt;interface_ui_methods -->
<g id="edge6" class="edge">
<title>instruments_xicam&#45;&gt;interface_ui_methods</title><style>.edge>path:hover{stroke-width:8}</style>
<path fill="none" stroke="black" d="M461.08,-226.89C470.21,-216.77 478.77,-203.45 478.64,-189.13"/>
<path fill="none" stroke="black" d="M478.64,-188.13C478.57,-179.72 439.3,-162.3 405.9,-149"/>
<polygon fill="#47c247" stroke="black" points="407.31,-145.8 396.72,-145.4 404.75,-152.32 407.31,-145.8"/>
</g>
<!-- instruments_xicam_cam_methods -->
<g id="node6" class="node">
<title>instruments_xicam_cam_methods</title><style>.edge>path:hover{stroke-width:8}</style>
<ellipse fill="#3db83d" stroke="black" cx="384.64" cy="-333.79" rx="54.8" ry="29.52"/>
<text text-anchor="middle" x="384.64" y="-341.16" font-family="Helvetica,sans-Serif" font-size="10.00" fill="#000000">instruments.</text>
<text text-anchor="middle" x="384.64" y="-329.91" font-family="Helvetica,sans-Serif" font-size="10.00" fill="#000000">xicam.</text>
<text text-anchor="middle" x="384.64" y="-318.66" font-family="Helvetica,sans-Serif" font-size="10.00" fill="#000000">cam_methods</text>
</g>
<!-- instruments_xicam_cam_methods&#45;&gt;app_py -->
<g id="edge7" class="edge">
<title>instruments_xicam_cam_methods&#45;&gt;app_py</title><style>.edge>path:hover{stroke-width:8}</style>
<path fill="none" stroke="black" d="M430.98,-317.64C454.72,-307.46 481.88,-291.56 497.64,-268.27 532.03,-217.47 531.39,-191.11 516.64,-131.57"/>
</g>
<!-- instruments_xicam_cam_methods&#45;&gt;interface_ui_methods -->
<g id="edge8" class="edge">
<title>instruments_xicam_cam_methods&#45;&gt;interface_ui_methods</title><style>.edge>path:hover{stroke-width:8}</style>
<path fill="none" stroke="black" d="M338.79,-317.11C315.11,-306.76 287.68,-290.88 270.64,-268.27 248.88,-239.38 226.73,-215.35 251.64,-189.13"/>
</g>
<!-- interface -->
<g id="node7" class="node">
<title>interface</title><style>.edge>path:hover{stroke-width:8}</style>
<ellipse fill="#53b695" stroke="black" cx="456.64" cy="-130.57" rx="31.66" ry="18"/>
<text text-anchor="middle" x="456.64" y="-126.69" font-family="Helvetica,sans-Serif" font-size="10.00" fill="#000000">interface</text>
</g>
<!-- interface&#45;&gt;app_py -->
<g id="edge9" class="edge">
<title>interface&#45;&gt;app_py</title><style>.edge>path:hover{stroke-width:8}</style>
<path fill="none" stroke="black" d="M452.95,-112.4C451.3,-100.73 450.85,-85.25 456.64,-73"/>
</g>
<!-- interface_ui -->
<g id="node8" class="node">
<title>interface_ui</title><style>.edge>path:hover{stroke-width:8}</style>
<ellipse fill="#347962" stroke="black" cx="582.64" cy="-130.57" rx="37.87" ry="18"/>
<text text-anchor="middle" x="582.64" y="-126.69" font-family="Helvetica,sans-Serif" font-size="10.00" fill="#ffffff">interface.ui</text>
</g>
<!-- interface_ui&#45;&gt;app_py -->
<g id="edge10" class="edge">
<title>interface_ui&#45;&gt;app_py</title><style>.edge>path:hover{stroke-width:8}</style>
<path fill="none" stroke="black" d="M554.04,-118.36C516.17,-103.29 454.36,-77.82 456.64,-73"/>
</g>
<!-- interface_ui_methods&#45;&gt;app_py -->
<g id="edge11" class="edge">
<title>interface_ui_methods&#45;&gt;app_py</title><style>.edge>path:hover{stroke-width:8}</style>
<path fill="none" stroke="black" d="M393.06,-115.06C418.59,-103.14 450.43,-86.13 456.64,-73"/>
</g>
<!-- matplotlib -->
<g id="node10" class="node">
<title>matplotlib</title><style>.edge>path:hover{stroke-width:8}</style>
<polygon fill="blue" stroke="black" points="878.64,-264.7 820.64,-264.7 820.64,-228.7 878.64,-228.7 878.64,-264.7"/>
<text text-anchor="middle" x="849.64" y="-242.83" font-family="Helvetica,sans-Serif" font-size="10.00" fill="white">matplotlib</text>
</g>
<!-- matplotlib&#45;&gt;interface_ui -->
<g id="edge12" class="edge">
<title>matplotlib&#45;&gt;interface_ui</title><style>.edge>path:hover{stroke-width:8}</style>
<path fill="none" stroke="black" d="M820.55,-231.65C815.91,-229.45 811.15,-227.21 806.64,-225.13 770.87,-208.63 758.74,-210.5 725.64,-189.13"/>
</g>
<!-- matplotlib_backends -->
<g id="node11" class="node">
<title>matplotlib_backends</title><style>.edge>path:hover{stroke-width:8}</style>
<ellipse fill="#3b9dce" stroke="black" cx="780.64" cy="-420.88" rx="43.13" ry="21.57"/>
<text text-anchor="middle" x="780.64" y="-422.63" font-family="Helvetica,sans-Serif" font-size="10.00" fill="#000000">matplotlib.</text>
<text text-anchor="middle" x="780.64" y="-411.38" font-family="Helvetica,sans-Serif" font-size="10.00" fill="#000000">backends</text>
</g>
<!-- matplotlib_backends&#45;&gt;interface_ui -->
<g id="edge13" class="edge">
<title>matplotlib_backends&#45;&gt;interface_ui</title><style>.edge>path:hover{stroke-width:8}</style>
<path fill="none" stroke="black" d="M725.64,-188.13C694.98,-167.55 655.7,-152.69 626.07,-143.39"/>
<polygon fill="#3b9dce" stroke="black" points="627.26,-140.09 616.68,-140.53 625.23,-146.79 627.26,-140.09"/>
<path fill="none" stroke="black" d="M758.49,-402.19C746.49,-391.79 732.03,-377.86 721.64,-363.31 694.6,-325.43 687.66,-313.73 677.64,-268.27 673.52,-249.55 669.07,-242.28 677.64,-225.13 689.57,-201.28 747.78,-204 725.64,-189.13"/>
</g>
<!-- matplotlib_pyplot -->
<g id="node13" class="node">
<title>matplotlib_pyplot</title><style>.edge>path:hover{stroke-width:8}</style>
<polygon fill="blue" stroke="black" points="933.14,-351.79 872.14,-351.79 872.14,-315.79 933.14,-315.79 933.14,-351.79"/>
<text text-anchor="middle" x="902.64" y="-335.54" font-family="Helvetica,sans-Serif" font-size="10.00" fill="white">matplotlib.</text>
<text text-anchor="middle" x="902.64" y="-324.29" font-family="Helvetica,sans-Serif" font-size="10.00" fill="white">pyplot</text>
</g>
<!-- matplotlib_backends&#45;&gt;matplotlib_pyplot -->
<g id="edge14" class="edge">
<title>matplotlib_backends&#45;&gt;matplotlib_pyplot</title><style>.edge>path:hover{stroke-width:8}</style>
<path fill="none" stroke="black" d="M805.85,-403.01C822.38,-391.88 844.41,-376.89 863.64,-363.31 865.7,-361.86 867.82,-360.35 869.94,-358.82"/>
<polygon fill="#3b9dce" stroke="black" points="871.95,-361.69 878,-353 867.84,-356.02 871.95,-361.69"/>
</g>
<!-- matplotlib_backends_backend_qt5agg -->
<g id="node12" class="node">
<title>matplotlib_backends_backend_qt5agg</title><style>.edge>path:hover{stroke-width:8}</style>
<ellipse fill="#498bac" stroke="black" cx="792.64" cy="-333.79" rx="61.7" ry="29.52"/>
<text text-anchor="middle" x="792.64" y="-341.16" font-family="Helvetica,sans-Serif" font-size="10.00" fill="#ffffff">matplotlib.</text>
<text text-anchor="middle" x="792.64" y="-329.91" font-family="Helvetica,sans-Serif" font-size="10.00" fill="#ffffff">backends.</text>
<text text-anchor="middle" x="792.64" y="-318.66" font-family="Helvetica,sans-Serif" font-size="10.00" fill="#ffffff">backend_qt5agg</text>
</g>
<!-- matplotlib_backends_backend_qt5agg&#45;&gt;interface_ui -->
<g id="edge15" class="edge">
<title>matplotlib_backends_backend_qt5agg&#45;&gt;interface_ui</title><style>.edge>path:hover{stroke-width:8}</style>
<path fill="none" stroke="black" d="M793.19,-303.79C792.35,-280.87 788.25,-248.9 773.64,-225.13 759.68,-202.41 748.05,-203.6 725.64,-189.13"/>
</g>
<!-- matplotlib_pyplot&#45;&gt;interface_ui -->
<g id="edge16" class="edge">
<title>matplotlib_pyplot&#45;&gt;interface_ui</title><style>.edge>path:hover{stroke-width:8}</style>
<path fill="none" stroke="black" d="M905.71,-315.37C908.79,-291.75 910.3,-249.68 887.64,-225.13 837.62,-170.93 787.23,-229.72 725.64,-189.13"/>
</g>
<!-- matplotlib_pyplot&#45;&gt;matplotlib -->
<g id="edge17" class="edge">
<title>matplotlib_pyplot&#45;&gt;matplotlib</title><style>.edge>path:hover{stroke-width:8}</style>
<path fill="none" stroke="black" d="M891.92,-315.57C884.64,-303.88 874.86,-288.19 866.55,-274.84"/>
<polygon fill="blue" stroke="black" points="869.59,-273.11 861.34,-266.47 863.65,-276.81 869.59,-273.11"/>
</g>
<!-- PyQt6 -->
<g id="node14" class="node">
<title>PyQt6</title><style>.edge>path:hover{stroke-width:8}</style>
<ellipse fill="#db2f2f" stroke="black" cx="124.64" cy="-246.7" rx="27" ry="18"/>
<text text-anchor="middle" x="124.64" y="-242.83" font-family="Helvetica,sans-Serif" font-size="10.00" fill="#ffffff">PyQt6</text>
</g>
<!-- PyQt6&#45;&gt;acquisitions_stream_camera -->
<g id="edge18" class="edge">
<title>PyQt6&#45;&gt;acquisitions_stream_camera</title><style>.edge>path:hover{stroke-width:8}</style>
<path fill="none" stroke="black" d="M186.64,-188.13C197.72,-181.08 207.69,-170.78 215.7,-160.9"/>
<polygon fill="#db2f2f" stroke="black" points="218.26,-163.31 221.56,-153.25 212.7,-159.06 218.26,-163.31"/>
</g>
<!-- PyQt6&#45;&gt;app_py -->
<g id="edge19" class="edge">
<title>PyQt6&#45;&gt;app_py</title><style>.edge>path:hover{stroke-width:8}</style>
<path fill="none" stroke="black" d="M138.25,-230.67C150.09,-218.27 168.21,-200.87 186.64,-189.13"/>
<path fill="none" stroke="black" d="M186.64,-188.13C212.19,-171.87 133.23,-157.64 148.64,-131.57"/>
</g>
<!-- PyQt6&#45;&gt;interface_ui -->
<g id="edge20" class="edge">
<title>PyQt6&#45;&gt;interface_ui</title><style>.edge>path:hover{stroke-width:8}</style>
<path fill="none" stroke="black" d="M186.64,-188.13C251.49,-146.87 455.99,-170.44 530.64,-152.13 535.5,-150.94 540.5,-149.4 545.39,-147.7"/>
<polygon fill="#db2f2f" stroke="black" points="546.29,-151.1 554.42,-144.31 543.83,-144.54 546.29,-151.1"/>
</g>
<!-- PyQt6&#45;&gt;interface_ui_methods -->
<g id="edge21" class="edge">
<title>PyQt6&#45;&gt;interface_ui_methods</title><style>.edge>path:hover{stroke-width:8}</style>
<path fill="none" stroke="black" d="M186.64,-188.13C232.54,-158.92 252.09,-169.52 303.64,-152.13 306.73,-151.09 309.89,-150 313.08,-148.88"/>
<polygon fill="#db2f2f" stroke="black" points="314.23,-152.19 322.47,-145.53 311.88,-145.6 314.23,-152.19"/>
</g>
<!-- PyQt6_QtCore -->
<g id="node15" class="node">
<title>PyQt6_QtCore</title><style>.edge>path:hover{stroke-width:8}</style>
<ellipse fill="#ce3b3b" stroke="black" cx="325.64" cy="-246.7" rx="46.3" ry="18"/>
<text text-anchor="middle" x="325.64" y="-242.83" font-family="Helvetica,sans-Serif" font-size="10.00" fill="#ffffff">PyQt6.QtCore</text>
</g>
<!-- PyQt6_QtCore&#45;&gt;acquisitions_stream_camera -->
<g id="edge22" class="edge">
<title>PyQt6_QtCore&#45;&gt;acquisitions_stream_camera</title><style>.edge>path:hover{stroke-width:8}</style>
<path fill="none" stroke="black" d="M336.07,-228.71C342.88,-217.53 351.91,-202.53 359.64,-189.13"/>
<path fill="none" stroke="black" d="M359.64,-188.13C363.93,-180.7 323.48,-163.5 287.66,-150.01"/>
<polygon fill="#ce3b3b" stroke="black" points="289.24,-146.87 278.65,-146.66 286.8,-153.43 289.24,-146.87"/>
</g>
<!-- PyQt6_QtCore&#45;&gt;interface_ui -->
<g id="edge23" class="edge">
<title>PyQt6_QtCore&#45;&gt;interface_ui</title><style>.edge>path:hover{stroke-width:8}</style>
<path fill="none" stroke="black" d="M359.64,-188.13C398.45,-120.86 456.27,-174.5 530.64,-152.13 535.19,-150.77 539.9,-149.17 544.55,-147.48"/>
<polygon fill="#ce3b3b" stroke="black" points="545.64,-150.81 553.74,-143.98 543.15,-144.27 545.64,-150.81"/>
</g>
<!-- PyQt6_QtCore&#45;&gt;interface_ui_methods -->
<g id="edge24" class="edge">
<title>PyQt6_QtCore&#45;&gt;interface_ui_methods</title><style>.edge>path:hover{stroke-width:8}</style>
<path fill="none" stroke="black" d="M359.64,-188.13C363.81,-180.91 365.21,-172.25 365.23,-163.9"/>
<polygon fill="#ce3b3b" stroke="black" points="368.72,-163.74 364.56,-154 361.74,-164.21 368.72,-163.74"/>
</g>
<!-- PyQt6_QtGui -->
<g id="node16" class="node">
<title>PyQt6_QtGui</title><style>.edge>path:hover{stroke-width:8}</style>
<ellipse fill="#c24747" stroke="black" cx="587.64" cy="-246.7" rx="42.75" ry="18"/>
<text text-anchor="middle" x="587.64" y="-242.83" font-family="Helvetica,sans-Serif" font-size="10.00" fill="#ffffff">PyQt6.QtGui</text>
</g>
<!-- PyQt6_QtGui&#45;&gt;interface_ui -->
<g id="edge25" class="edge">
<title>PyQt6_QtGui&#45;&gt;interface_ui</title><style>.edge>path:hover{stroke-width:8}</style>
<path fill="none" stroke="black" d="M582.64,-188.13C577.22,-180 576.01,-169.64 576.56,-160.02"/>
<polygon fill="#c24747" stroke="black" points="580.01,-160.69 577.76,-150.34 573.06,-159.84 580.01,-160.69"/>
</g>
<!-- PyQt6_QtGui&#45;&gt;interface_ui_methods -->
<g id="edge26" class="edge">
<title>PyQt6_QtGui&#45;&gt;interface_ui_methods</title><style>.edge>path:hover{stroke-width:8}</style>
<path fill="none" stroke="black" d="M582.64,-188.13C540.51,-124.97 488.57,-173.27 415.64,-152.13 412.32,-151.17 408.91,-150.11 405.49,-148.99"/>
<polygon fill="#c24747" stroke="black" points="406.67,-145.69 396.08,-145.76 404.4,-152.31 406.67,-145.69"/>
<path fill="none" stroke="black" d="M590.21,-228.46C591.08,-216.46 590.3,-200.62 582.64,-189.13"/>
</g>
<!-- PyQt6_QtWidgets -->
<g id="node17" class="node">
<title>PyQt6_QtWidgets</title><style>.edge>path:hover{stroke-width:8}</style>
<ellipse fill="#c24747" stroke="black" cx="978.64" cy="-246.7" rx="44.19" ry="21.57"/>
<text text-anchor="middle" x="978.64" y="-248.45" font-family="Helvetica,sans-Serif" font-size="10.00" fill="#ffffff">PyQt6.</text>
<text text-anchor="middle" x="978.64" y="-237.2" font-family="Helvetica,sans-Serif" font-size="10.00" fill="#ffffff">QtWidgets</text>
</g>
<!-- PyQt6_QtWidgets&#45;&gt;app_py -->
<g id="edge27" class="edge">
<title>PyQt6_QtWidgets&#45;&gt;app_py</title><style>.edge>path:hover{stroke-width:8}</style>
<path fill="none" stroke="black" d="M763.64,-188.13C698.88,-163.84 694.15,-133.97 629.64,-109 556.4,-80.65 423.07,-144 456.64,-73"/>
</g>
<!-- PyQt6_QtWidgets&#45;&gt;interface_ui -->
<g id="edge28" class="edge">
<title>PyQt6_QtWidgets&#45;&gt;interface_ui</title><style>.edge>path:hover{stroke-width:8}</style>
<path fill="none" stroke="black" d="M944.2,-232.75C936.5,-230.06 928.34,-227.37 920.64,-225.13 851.9,-205.14 830.67,-214.28 763.64,-189.13"/>
<path fill="none" stroke="black" d="M763.64,-188.13C717.13,-170.69 662.57,-154.15 625.6,-143.52"/>
<polygon fill="#c24747" stroke="black" points="626.76,-140.21 616.18,-140.83 624.84,-146.94 626.76,-140.21"/>
</g>
<!-- qtawesome -->
<g id="node18" class="node">
<title>qtawesome</title><style>.edge>path:hover{stroke-width:8}</style>
<ellipse fill="#5353b6" stroke="black" cx="725.64" cy="-246.7" rx="39.2" ry="18"/>
<text text-anchor="middle" x="725.64" y="-242.83" font-family="Helvetica,sans-Serif" font-size="10.00" fill="#ffffff">qtawesome</text>
</g>
<!-- qtawesome&#45;&gt;interface_ui -->
<g id="edge29" class="edge">
<title>qtawesome&#45;&gt;interface_ui</title><style>.edge>path:hover{stroke-width:8}</style>
<path fill="none" stroke="black" d="M732.09,-228.47C735.92,-214.93 737.94,-197.07 725.64,-189.13"/>
</g>
<!-- utils -->
<g id="node19" class="node">
<title>utils</title><style>.edge>path:hover{stroke-width:8}</style>
<ellipse fill="#9553b6" stroke="black" cx="196.64" cy="-246.7" rx="27" ry="18"/>
<text text-anchor="middle" x="196.64" y="-242.83" font-family="Helvetica,sans-Serif" font-size="10.00" fill="#ffffff">utils</text>
</g>
<!-- utils&#45;&gt;interface_ui_methods -->
<g id="edge30" class="edge">
<title>utils&#45;&gt;interface_ui_methods</title><style>.edge>path:hover{stroke-width:8}</style>
<path fill="none" stroke="black" d="M210.75,-231.37C221.92,-219.99 237.87,-203.63 251.64,-189.13"/>
<path fill="none" stroke="black" d="M251.64,-188.13C268.16,-170.76 291.2,-157.68 311.76,-148.51"/>
<polygon fill="#9553b6" stroke="black" points="313,-151.78 320.84,-144.65 310.27,-145.34 313,-151.78"/>
</g>
<!-- ximea -->
<g id="node20" class="node">
<title>ximea</title><style>.edge>path:hover{stroke-width:8}</style>
<ellipse fill="#b65395" stroke="black" cx="384.64" cy="-533.44" rx="27" ry="18"/>
<text text-anchor="middle" x="384.64" y="-529.57" font-family="Helvetica,sans-Serif" font-size="10.00" fill="#ffffff">ximea</text>
</g>
<!-- ximea&#45;&gt;instruments_xicam_cam_methods -->
<g id="edge31" class="edge">
<title>ximea&#45;&gt;instruments_xicam_cam_methods</title><style>.edge>path:hover{stroke-width:8}</style>
<path fill="none" stroke="black" d="M381.89,-515.28C380.85,-504.67 380.73,-490.94 384.64,-479.44"/>
</g>
<!-- ximea_xiapi -->
<g id="node21" class="node">
<title>ximea_xiapi</title><style>.edge>path:hover{stroke-width:8}</style>
<ellipse fill="#b65395" stroke="black" cx="300.64" cy="-533.44" rx="38.76" ry="18"/>
<text text-anchor="middle" x="300.64" y="-529.57" font-family="Helvetica,sans-Serif" font-size="10.00" fill="#ffffff">ximea.xiapi</text>
</g>
<!-- ximea_xiapi&#45;&gt;instruments_xicam_cam_methods -->
<g id="edge32" class="edge">
<title>ximea_xiapi&#45;&gt;instruments_xicam_cam_methods</title><style>.edge>path:hover{stroke-width:8}</style>
<path fill="none" stroke="black" d="M327.54,-520.11C350.45,-508.86 380.33,-492.09 384.64,-479.44"/>
<path fill="none" stroke="black" d="M384.64,-478.44C396.11,-444.78 394.8,-404.06 391.4,-374.58"/>
<polygon fill="#b65395" stroke="black" points="394.91,-374.44 390.15,-364.98 387.97,-375.34 394.91,-374.44"/>
</g>
</g>
</svg>
